<svg width="24" height="24" viewBox="0 0 24 24" fill="none" xmlns="http://www.w3.org/2000/svg">
<g clip-path="url(#clip0_4638_2456)">
<g clip-path="url(#clip1_4638_2456)">
<path d="M14.5 6H23.5V23H0.5V6H9.5" stroke="#0DA168"/>
<path fill-rule="evenodd" clip-rule="evenodd" d="M9 15C9 15.5304 8.78929 16.0391 8.41421 16.4142C8.03914 16.7893 7.53043 17 7 17C6.46957 17 5.96086 16.7893 5.58579 16.4142C5.21071 16.0391 5 15.5304 5 15C5 14.4696 5.21071 13.9609 5.58579 13.5858C5.96086 13.2107 6.46957 13 7 13C7.53043 13 8.03914 13.2107 8.41421 13.5858C8.78929 13.9609 9 14.4696 9 15Z" stroke="#0DA168"/>
<path fill-rule="evenodd" clip-rule="evenodd" d="M7 17C4.5 17 3.5 18.5 3.5 20H10.5C10.5 18.5 9.5 17 7 17ZM14.5 8H9.5V4C9.5 2.625 10.625 1.5 12 1.5C13.375 1.5 14.5 2.625 14.5 4V8Z" stroke="#0DA168"/>
<path fill-rule="evenodd" clip-rule="evenodd" d="M12 3C11.7348 3 11.4804 3.10536 11.2929 3.29289C11.1054 3.48043 11 3.73478 11 4C11 4.26522 11.1054 4.51957 11.2929 4.70711C11.4804 4.89464 11.7348 5 12 5C12.2652 5 12.5196 4.89464 12.7071 4.70711C12.8946 4.51957 13 4.26522 13 4C13 3.73478 12.8946 3.48043 12.7071 3.29289C12.5196 3.10536 12.2652 3 12 3Z" fill="#0DA168" stroke="#0DA168"/>
<path d="M0.5 10H23.5M13 19H21M13 17H21M13 15H21M13 13H17" stroke="#0DA168"/>
</g>
</g>
<defs>
<clipPath id="clip0_4638_2456">
<rect width="24" height="24" fill="white"/>
</clipPath>
<clipPath id="clip1_4638_2456">
<rect width="24" height="24" fill="white"/>
</clipPath>
</defs>
</svg>
