<svg width="24" height="24" viewBox="0 0 24 24" fill="none" xmlns="http://www.w3.org/2000/svg">
<g clip-path="url(#clip0_4638_2445)">
<g clip-path="url(#clip1_4638_2445)">
<g clip-path="url(#clip2_4638_2445)">
<path d="M9 19H15M23 12C23 18.075 18.074 23 12 23C5.924 23 1 18.075 1 12C1 5.925 5.924 1 12 1C18.074 1 23 5.925 23 12Z" stroke="#0DA168"/>
<path d="M10 10H12V18.5" stroke="#0DA168"/>
<path fill-rule="evenodd" clip-rule="evenodd" d="M11.5 5.5C11.2348 5.5 10.9804 5.60536 10.7929 5.79289C10.6054 5.98043 10.5 6.23478 10.5 6.5C10.5 6.76522 10.6054 7.01957 10.7929 7.20711C10.9804 7.39464 11.2348 7.5 11.5 7.5C11.7652 7.5 12.0196 7.39464 12.2071 7.20711C12.3946 7.01957 12.5 6.76522 12.5 6.5C12.5 6.23478 12.3946 5.98043 12.2071 5.79289C12.0196 5.60536 11.7652 5.5 11.5 5.5Z" fill="#0DA168" stroke="#0DA168"/>
</g>
</g>
</g>
<defs>
<clipPath id="clip0_4638_2445">
<rect width="24" height="24" fill="white"/>
</clipPath>
<clipPath id="clip1_4638_2445">
<rect width="24" height="24" fill="white"/>
</clipPath>
<clipPath id="clip2_4638_2445">
<rect width="24" height="24" fill="white"/>
</clipPath>
</defs>
</svg>
