<svg width="24" height="25" viewBox="0 0 24 25" fill="none" xmlns="http://www.w3.org/2000/svg">
<g clip-path="url(#clip0_5011_432)">
<g clip-path="url(#clip1_5011_432)">
<g clip-path="url(#clip2_5011_432)">
<path fill-rule="evenodd" clip-rule="evenodd" d="M12 17.8C11.7348 17.8 11.4804 17.9054 11.2929 18.0929C11.1054 18.2805 11 18.5348 11 18.8C11 19.0653 11.1054 19.3196 11.2929 19.5072C11.4804 19.6947 11.7348 19.8 12 19.8C12.2652 19.8 12.5196 19.6947 12.7071 19.5072C12.8946 19.3196 13 19.0653 13 18.8C13 18.5348 12.8946 18.2805 12.7071 18.0929C12.5196 17.9054 12.2652 17.8 12 17.8Z" fill="#35B181" stroke="#35B181"/>
<path fill-rule="evenodd" clip-rule="evenodd" d="M23.5 12.8C23.5 19.1515 18.3515 24.3 12 24.3C5.6485 24.3 0.5 19.1515 0.5 12.8C0.5 6.44855 5.6485 1.30005 12 1.30005C18.3515 1.30005 23.5 6.44855 23.5 12.8Z" stroke="#35B181"/>
<path d="M9 10.3001C9 9.70671 9.17595 9.12669 9.50559 8.63334C9.83524 8.13999 10.3038 7.75547 10.8519 7.52841C11.4001 7.30135 12.0033 7.24194 12.5853 7.35769C13.1672 7.47345 13.7018 7.75917 14.1213 8.17873C14.5409 8.59829 14.8266 9.13284 14.9424 9.71478C15.0581 10.2967 14.9987 10.8999 14.7716 11.4481C14.5446 11.9963 14.1601 12.4648 13.6667 12.7945C13.1734 13.1241 12.5933 13.3 12 13.3V16.3" stroke="#35B181"/>
</g>
</g>
</g>
<defs>
<clipPath id="clip0_5011_432">
<rect width="24" height="24" fill="white" transform="translate(0 0.800049)"/>
</clipPath>
<clipPath id="clip1_5011_432">
<rect width="24" height="24" fill="white" transform="translate(0 0.800049)"/>
</clipPath>
<clipPath id="clip2_5011_432">
<rect width="24" height="24" fill="white" transform="translate(0 0.800049)"/>
</clipPath>
</defs>
</svg>
