<svg width="28" height="24" viewBox="0 0 28 24" fill="none" xmlns="http://www.w3.org/2000/svg">
<path d="M28 0.656006L26.72 1.03101L3.812 8.00001H0V16H3.813L5.781 16.594L5.751 16.687V16.719C5.109 18.831 6.298 21.179 8.501 21.843C8.511 21.846 8.523 21.84 8.531 21.843C10.654 22.488 13.004 21.313 13.657 19.093L13.687 18.999L26.72 22.969L28 23.343V0.656006ZM26 3.34401V20.656L4.28 14.03L4.157 14H2V10H4.156L4.281 9.97001L26 3.34401ZM7.687 17.187L11.781 18.407L11.751 18.5V18.53C11.407 19.7 10.165 20.272 9.095 19.937C7.925 19.594 7.323 18.383 7.657 17.312V17.282L7.687 17.187Z" fill="#53A3F9"/>
</svg>
