<svg width="20" height="20" viewBox="0 0 20 20" fill="none" xmlns="http://www.w3.org/2000/svg">
<path d="M19 5.5V14.5C19 18.1 17.875 19 13.375 19H6.625C2.125 19 1 18.1 1 14.5V5.5C1 1.9 2.125 1 6.625 1H13.375C17.875 1 19 1.9 19 5.5Z" stroke="#0DA168" stroke-linecap="round" stroke-linejoin="round"/>
<path d="M12.25 4.15002H7.75" stroke="#0DA168" stroke-linecap="round" stroke-linejoin="round"/>
<path d="M9.99961 16.39C10.9627 16.39 11.7434 15.7654 11.7434 14.995C11.7434 14.2245 10.9627 13.6 9.99961 13.6C9.03656 13.6 8.25586 14.2245 8.25586 14.995C8.25586 15.7654 9.03656 16.39 9.99961 16.39Z" stroke="#0DA168" stroke-linecap="round" stroke-linejoin="round"/>
</svg>
