<svg width="25" height="24" viewBox="0 0 25 24" fill="none" xmlns="http://www.w3.org/2000/svg">
<path d="M9.5 4.99952C9.23478 4.99952 8.98043 5.10488 8.79289 5.29241C8.60536 5.47995 8.5 5.7343 8.5 5.99952C8.5 6.26474 8.60536 6.51909 8.79289 6.70663C8.98043 6.89416 9.23478 6.99952 9.5 6.99952C9.76522 6.99952 10.0196 6.89416 10.2071 6.70663C10.3946 6.51909 10.5 6.26474 10.5 5.99952C10.5 5.7343 10.3946 5.47995 10.2071 5.29241C10.0196 5.10488 9.76522 4.99952 9.5 4.99952ZM6.67 4.99952C6.8766 4.41399 7.25974 3.90695 7.7666 3.54831C8.27346 3.18967 8.87909 2.99707 9.5 2.99707C10.1209 2.99707 10.7265 3.18967 11.2334 3.54831C11.7403 3.90695 12.1234 4.41399 12.33 4.99952H19.5C19.7652 4.99952 20.0196 5.10488 20.2071 5.29241C20.3946 5.47995 20.5 5.7343 20.5 5.99952C20.5 6.26474 20.3946 6.51909 20.2071 6.70663C20.0196 6.89416 19.7652 6.99952 19.5 6.99952H12.33C12.1234 7.58505 11.7403 8.09209 11.2334 8.45073C10.7265 8.80938 10.1209 9.00197 9.5 9.00197C8.87909 9.00197 8.27346 8.80938 7.7666 8.45073C7.25974 8.09209 6.8766 7.58505 6.67 6.99952H5.5C5.23478 6.99952 4.98043 6.89416 4.79289 6.70663C4.60536 6.51909 4.5 6.26474 4.5 5.99952C4.5 5.7343 4.60536 5.47995 4.79289 5.29241C4.98043 5.10488 5.23478 4.99952 5.5 4.99952H6.67ZM15.5 10.9995C15.2348 10.9995 14.9804 11.1049 14.7929 11.2924C14.6054 11.4799 14.5 11.7343 14.5 11.9995C14.5 12.2647 14.6054 12.5191 14.7929 12.7066C14.9804 12.8942 15.2348 12.9995 15.5 12.9995C15.7652 12.9995 16.0196 12.8942 16.2071 12.7066C16.3946 12.5191 16.5 12.2647 16.5 11.9995C16.5 11.7343 16.3946 11.4799 16.2071 11.2924C16.0196 11.1049 15.7652 10.9995 15.5 10.9995ZM12.67 10.9995C12.8766 10.414 13.2597 9.90695 13.7666 9.54831C14.2735 9.18967 14.8791 8.99707 15.5 8.99707C16.1209 8.99707 16.7265 9.18967 17.2334 9.54831C17.7403 9.90695 18.1234 10.414 18.33 10.9995H19.5C19.7652 10.9995 20.0196 11.1049 20.2071 11.2924C20.3946 11.4799 20.5 11.7343 20.5 11.9995C20.5 12.2647 20.3946 12.5191 20.2071 12.7066C20.0196 12.8942 19.7652 12.9995 19.5 12.9995H18.33C18.1234 13.5851 17.7403 14.0921 17.2334 14.4507C16.7265 14.8094 16.1209 15.002 15.5 15.002C14.8791 15.002 14.2735 14.8094 13.7666 14.4507C13.2597 14.0921 12.8766 13.5851 12.67 12.9995H5.5C5.23478 12.9995 4.98043 12.8942 4.79289 12.7066C4.60536 12.5191 4.5 12.2647 4.5 11.9995C4.5 11.7343 4.60536 11.4799 4.79289 11.2924C4.98043 11.1049 5.23478 10.9995 5.5 10.9995H12.67ZM9.5 16.9995C9.23478 16.9995 8.98043 17.1049 8.79289 17.2924C8.60536 17.4799 8.5 17.7343 8.5 17.9995C8.5 18.2647 8.60536 18.5191 8.79289 18.7066C8.98043 18.8942 9.23478 18.9995 9.5 18.9995C9.76522 18.9995 10.0196 18.8942 10.2071 18.7066C10.3946 18.5191 10.5 18.2647 10.5 17.9995C10.5 17.7343 10.3946 17.4799 10.2071 17.2924C10.0196 17.1049 9.76522 16.9995 9.5 16.9995ZM6.67 16.9995C6.8766 16.414 7.25974 15.907 7.7666 15.5483C8.27346 15.1897 8.87909 14.9971 9.5 14.9971C10.1209 14.9971 10.7265 15.1897 11.2334 15.5483C11.7403 15.907 12.1234 16.414 12.33 16.9995H19.5C19.7652 16.9995 20.0196 17.1049 20.2071 17.2924C20.3946 17.4799 20.5 17.7343 20.5 17.9995C20.5 18.2647 20.3946 18.5191 20.2071 18.7066C20.0196 18.8942 19.7652 18.9995 19.5 18.9995H12.33C12.1234 19.5851 11.7403 20.0921 11.2334 20.4507C10.7265 20.8094 10.1209 21.002 9.5 21.002C8.87909 21.002 8.27346 20.8094 7.7666 20.4507C7.25974 20.0921 6.8766 19.5851 6.67 18.9995H5.5C5.23478 18.9995 4.98043 18.8942 4.79289 18.7066C4.60536 18.5191 4.5 18.2647 4.5 17.9995C4.5 17.7343 4.60536 17.4799 4.79289 17.2924C4.98043 17.1049 5.23478 16.9995 5.5 16.9995H6.67Z" fill="white"/>
</svg>
