<svg width="25" height="24" viewBox="0 0 25 24" fill="none" xmlns="http://www.w3.org/2000/svg">
<path d="M18.25 2.00098C18.8201 2.00091 19.369 2.21727 19.7858 2.60635C20.2025 2.99542 20.456 3.52819 20.495 4.09698L20.5 4.24998V14.378C20.38 14.458 20.265 14.552 20.159 14.658L16.75 18.066L15.842 17.156C15.4427 16.7557 14.907 16.521 14.342 16.499H16.75C16.9489 16.499 17.1397 16.42 17.2803 16.2793C17.421 16.1387 17.5 15.9479 17.5 15.749C17.5 15.5501 17.421 15.3593 17.2803 15.2186C17.1397 15.078 16.9489 14.999 16.75 14.999H11.746C11.5471 14.999 11.3563 15.078 11.2157 15.2186C11.075 15.3593 10.996 15.5501 10.996 15.749C10.996 15.9479 11.075 16.1387 11.2157 16.2793C11.3563 16.42 11.5471 16.499 11.746 16.499H14.159C13.7221 16.5167 13.2999 16.6613 12.9439 16.9151C12.5879 17.169 12.3135 17.521 12.1544 17.9283C11.9953 18.3355 11.9583 18.7803 12.0479 19.2083C12.1375 19.6362 12.3499 20.0288 12.659 20.338L14.318 21.998H6.75C6.17987 21.998 5.63098 21.7817 5.21425 21.3926C4.79751 21.0035 4.54402 20.4708 4.505 19.902L4.5 19.75V4.25098C4.49993 3.68085 4.7163 3.13196 5.10537 2.71522C5.49444 2.29849 6.02721 2.045 6.596 2.00598L6.75 2.00098H18.25ZM9.5 7.75098C9.5 7.48576 9.39464 7.23141 9.20711 7.04387C9.01957 6.85633 8.76522 6.75098 8.5 6.75098C8.23478 6.75098 7.98043 6.85633 7.79289 7.04387C7.60536 7.23141 7.5 7.48576 7.5 7.75098C7.5 8.01619 7.60536 8.27055 7.79289 8.45808C7.98043 8.64562 8.23478 8.75098 8.5 8.75098C8.76522 8.75098 9.01957 8.64562 9.20711 8.45808C9.39464 8.27055 9.5 8.01619 9.5 7.75098ZM11.746 6.99998C11.5471 6.99998 11.3563 7.07899 11.2157 7.21965C11.075 7.3603 10.996 7.55106 10.996 7.74998C10.996 7.94889 11.075 8.13965 11.2157 8.28031C11.3563 8.42096 11.5471 8.49998 11.746 8.49998H16.75C16.9489 8.49998 17.1397 8.42096 17.2803 8.28031C17.421 8.13965 17.5 7.94889 17.5 7.74998C17.5 7.55106 17.421 7.3603 17.2803 7.21965C17.1397 7.07899 16.9489 6.99998 16.75 6.99998H11.746ZM10.996 11.75C10.996 12.164 11.332 12.5 11.746 12.5H16.75C16.8485 12.5 16.946 12.4806 17.037 12.4429C17.128 12.4052 17.2107 12.35 17.2803 12.2803C17.35 12.2107 17.4052 12.128 17.4429 12.037C17.4806 11.946 17.5 11.8485 17.5 11.75C17.5 11.6515 17.4806 11.554 17.4429 11.463C17.4052 11.372 17.35 11.2893 17.2803 11.2196C17.2107 11.15 17.128 11.0948 17.037 11.0571C16.946 11.0194 16.8485 11 16.75 11H11.746C11.5471 11 11.3563 11.079 11.2157 11.2196C11.075 11.3603 10.996 11.5511 10.996 11.75ZM9.5 11.75C9.5 11.4848 9.39464 11.2304 9.20711 11.0429C9.01957 10.8553 8.76522 10.75 8.5 10.75C8.23478 10.75 7.98043 10.8553 7.79289 11.0429C7.60536 11.2304 7.5 11.4848 7.5 11.75C7.5 12.0152 7.60536 12.2695 7.79289 12.4571C7.98043 12.6446 8.23478 12.75 8.5 12.75C8.76522 12.75 9.01957 12.6446 9.20711 12.4571C9.39464 12.2695 9.5 12.0152 9.5 11.75ZM9.5 15.748C9.5 15.4828 9.39464 15.2284 9.20711 15.0409C9.01957 14.8533 8.76522 14.748 8.5 14.748C8.23478 14.748 7.98043 14.8533 7.79289 15.0409C7.60536 15.2284 7.5 15.4828 7.5 15.748C7.5 16.0132 7.60536 16.2675 7.79289 16.4551C7.98043 16.6426 8.23478 16.748 8.5 16.748C8.76522 16.748 9.01957 16.6426 9.20711 16.4551C9.39464 16.2675 9.5 16.0132 9.5 15.748ZM16.75 20.189L21.22 15.719C21.2892 15.6474 21.372 15.5903 21.4635 15.551C21.555 15.5118 21.6535 15.4911 21.7531 15.4903C21.8526 15.4895 21.9514 15.5085 22.0435 15.5463C22.1357 15.584 22.2194 15.6397 22.2898 15.7102C22.3602 15.7806 22.4158 15.8644 22.4535 15.9566C22.4912 16.0488 22.5101 16.1476 22.5092 16.2471C22.5083 16.3467 22.4875 16.4451 22.4482 16.5366C22.4088 16.6281 22.3517 16.7108 22.28 16.78L17.28 21.78C17.1394 21.9204 16.9488 21.9993 16.75 21.9993C16.5512 21.9993 16.3606 21.9204 16.22 21.78L13.72 19.279C13.5875 19.1368 13.5154 18.9488 13.5188 18.7545C13.5223 18.5602 13.601 18.3748 13.7384 18.2374C13.8758 18.0999 14.0612 18.0212 14.2555 18.0178C14.4498 18.0144 14.6378 18.0865 14.78 18.219L16.75 20.189Z" fill="#000080"/>
</svg>
