<svg width="25" height="24" viewBox="0 0 25 24" fill="none" xmlns="http://www.w3.org/2000/svg">
<g clip-path="url(#clip0_360_2725)">
<path d="M12.4997 1.33301C10.39 1.33301 8.32772 1.9586 6.5736 3.13067C4.81947 4.30273 3.4523 5.96864 2.64496 7.91772C1.83763 9.8668 1.62639 12.0115 2.03797 14.0806C2.44955 16.1498 3.46545 18.0504 4.95721 19.5421C6.44897 21.0339 8.34959 22.0498 10.4187 22.4614C12.4878 22.873 14.6326 22.6617 16.5816 21.8544C18.5307 21.0471 20.1966 19.6799 21.3687 17.9258C22.5408 16.1716 23.1663 14.1093 23.1663 11.9997C23.1663 9.1707 22.0425 6.45759 20.0422 4.4572C18.0418 2.45681 15.3287 1.33301 12.4997 1.33301ZM12.4997 21.333C10.6537 21.333 8.84922 20.7856 7.31436 19.7601C5.7795 18.7345 4.58322 17.2768 3.8768 15.5714C3.17039 13.8659 2.98555 11.9893 3.34568 10.1788C3.70581 8.36834 4.59473 6.7053 5.90002 5.40001C7.20531 4.09472 8.86835 3.20581 10.6788 2.84568C12.4893 2.48555 14.3659 2.67038 16.0714 3.3768C17.7768 4.08322 19.2345 5.27949 20.2601 6.81435C21.2856 8.34921 21.833 10.1537 21.833 11.9997C21.833 14.475 20.8497 16.849 19.0993 18.5993C17.349 20.3497 14.975 21.333 12.4997 21.333Z" fill="black"/>
<path d="M12.6937 5.94696C11.9712 5.93502 11.255 6.08234 10.596 6.37846C9.9369 6.67458 9.35115 7.11222 8.88033 7.66029C8.81492 7.72091 8.76233 7.79404 8.72569 7.87534C8.68904 7.95664 8.66909 8.04447 8.66699 8.13363C8.66695 8.21588 8.68345 8.29731 8.71552 8.37305C8.74758 8.4488 8.79456 8.51732 8.85365 8.57455C8.91273 8.63177 8.98273 8.67652 9.05947 8.70614C9.1362 8.73576 9.21811 8.74964 9.30033 8.74696C9.47644 8.74259 9.64485 8.67381 9.77366 8.55363C10.13 8.13608 10.5725 7.80068 11.0708 7.57051C11.5691 7.34034 12.1114 7.22086 12.6603 7.22029C14.2337 7.22029 15.2137 8.23363 15.2137 9.49363V9.52696C15.2137 11.0003 14.0403 11.8203 12.187 11.9603C12.1119 11.9632 12.0384 11.9819 11.971 12.0152C11.9037 12.0485 11.8442 12.0957 11.7964 12.1536C11.7486 12.2115 11.7135 12.2788 11.6935 12.3512C11.6735 12.4236 11.669 12.4994 11.6803 12.5736C11.6803 12.5736 11.6803 14.1203 11.6803 14.407C11.6969 14.572 11.7744 14.7249 11.8977 14.8358C12.0209 14.9468 12.1811 15.0078 12.347 15.007H12.4203C12.5853 14.9904 12.7383 14.9129 12.8492 14.7896C12.9601 14.6663 13.0212 14.5061 13.0203 14.3403V12.967C15.0203 12.687 16.6403 11.6336 16.6403 9.44696V9.41363C16.6203 7.41363 15.0603 5.94696 12.6937 5.94696Z" fill="black"/>
<path d="M12.3529 18.3005C12.8131 18.3005 13.1862 17.9274 13.1862 17.4671C13.1862 17.0069 12.8131 16.6338 12.3529 16.6338C11.8926 16.6338 11.5195 17.0069 11.5195 17.4671C11.5195 17.9274 11.8926 18.3005 12.3529 18.3005Z" fill="black"/>
</g>
<defs>
<clipPath id="clip0_360_2725">
<rect width="24" height="24" fill="white" transform="translate(0.5)"/>
</clipPath>
</defs>
</svg>
