<svg width="32" height="32" viewBox="0 0 32 32" fill="none" xmlns="http://www.w3.org/2000/svg">
<g clip-path="url(#clip0_360_2663)">
<path d="M23.2682 3.12493C23.5001 2.85828 23.8284 2.6946 24.1809 2.66985C24.5334 2.6451 24.8813 2.7613 25.1482 2.99293C26.8726 4.48983 28.258 6.3371 29.2122 8.41159C29.3601 8.73303 29.3741 9.10003 29.2513 9.43184C29.1286 9.76366 28.879 10.0331 28.5576 10.1809C28.2361 10.3287 27.8691 10.3428 27.5373 10.22C27.2055 10.0973 26.936 9.8477 26.7882 9.52626C25.9933 7.79609 24.8388 6.2552 23.4016 5.00626C23.1347 4.77454 22.9708 4.44637 22.9458 4.09385C22.9208 3.74134 23.0368 3.39198 23.2682 3.12493ZM6.84823 2.99293C7.11522 2.76095 7.46342 2.64453 7.81624 2.66929C8.16906 2.69404 8.49759 2.85794 8.72957 3.12493C8.96154 3.39191 9.07796 3.74011 9.0532 4.09293C9.02845 4.44575 8.86455 4.77428 8.59757 5.00626C7.16037 6.2552 6.00584 7.79609 5.2109 9.52626C5.13984 9.68849 5.03718 9.83493 4.9089 9.95705C4.78062 10.0792 4.6293 10.1745 4.46377 10.2375C4.29824 10.3005 4.12182 10.3298 3.94481 10.3239C3.7678 10.3179 3.59376 10.2768 3.43283 10.2028C3.2719 10.1289 3.12732 10.0236 3.00752 9.89317C2.88773 9.76272 2.79513 9.60971 2.73512 9.44308C2.67511 9.27645 2.6489 9.09953 2.65802 8.92266C2.66714 8.74579 2.7114 8.5725 2.78823 8.41293C3.74112 6.33833 5.1252 4.49062 6.84823 2.99293ZM18.9802 25.3329C20.1336 25.3329 20.7429 26.6983 19.9736 27.5569C19.4738 28.1162 18.8615 28.5635 18.1767 28.8696C17.492 29.1757 16.7503 29.3336 16.0002 29.3329C15.2502 29.3336 14.5085 29.1757 13.8237 28.8696C13.139 28.5635 12.5267 28.1162 12.0269 27.5569C11.2909 26.7356 11.8162 25.4516 12.8722 25.3423L13.0189 25.3343L18.9802 25.3329ZM16.0002 2.66626C17.8109 2.66626 19.3416 3.87026 19.8336 5.52093L19.8949 5.74892L19.9056 5.80626C21.3754 6.63546 22.6279 7.80106 23.5605 9.20759C24.4931 10.6141 25.0792 12.2216 25.2709 13.8983L25.3082 14.2809L25.3336 14.6663V18.5743L25.3616 18.7556C25.5441 19.738 26.0878 20.6165 26.8856 21.2183L27.1082 21.3743L27.3242 21.5063C28.4709 22.1556 28.0709 23.8609 26.8216 23.9916L26.6669 23.9996H5.33357C3.9629 23.9996 3.48423 22.1809 4.67623 21.5063C5.18427 21.2188 5.62323 20.8235 5.96229 20.3483C6.30134 19.8732 6.53229 19.3295 6.6389 18.7556L6.6669 18.5649L6.66823 14.6049C6.74953 12.8634 7.25645 11.1684 8.14461 9.66822C9.03278 8.16803 10.2751 6.9084 11.7629 5.99959L12.0936 5.80493L12.1069 5.74759C12.2955 4.95029 12.7242 4.23004 13.335 3.68404C13.9459 3.13804 14.7095 2.79257 15.5229 2.69426L15.7656 2.67159L16.0002 2.66626Z" fill="#EF4444"/>
</g>
<defs>
<clipPath id="clip0_360_2663">
<rect width="32" height="32" fill="white"/>
</clipPath>
</defs>
</svg>
