<svg width="25" height="24" viewBox="0 0 25 24" fill="none" xmlns="http://www.w3.org/2000/svg">
<g clip-path="url(#clip0_360_2691)">
<path d="M21.9998 4H19.8332V5.33333H21.8332V20H3.16651V5.33333H5.16651V4H2.99985C2.844 4.0026 2.6902 4.03588 2.54722 4.09794C2.40425 4.15999 2.27489 4.24961 2.16655 4.36166C2.05821 4.47371 1.97301 4.60601 1.91581 4.751C1.85861 4.89599 1.83053 5.05083 1.83318 5.20667V20.1267C1.83053 20.2825 1.85861 20.4373 1.91581 20.5823C1.97301 20.7273 2.05821 20.8596 2.16655 20.9717C2.27489 21.0837 2.40425 21.1733 2.54722 21.2354C2.6902 21.2974 2.844 21.3307 2.99985 21.3333H21.9998C22.1557 21.3307 22.3095 21.2974 22.4525 21.2354C22.5954 21.1733 22.7248 21.0837 22.8331 20.9717C22.9415 20.8596 23.0267 20.7273 23.0839 20.5823C23.1411 20.4373 23.1692 20.2825 23.1665 20.1267V5.20667C23.1692 5.05083 23.1411 4.89599 23.0839 4.751C23.0267 4.60601 22.9415 4.47371 22.8331 4.36166C22.7248 4.24961 22.5954 4.15999 22.4525 4.09794C22.3095 4.03588 22.1557 4.0026 21.9998 4Z" fill="black"/>
<path d="M5.83301 9.33301H7.16634V10.6663H5.83301V9.33301Z" fill="black"/>
<path d="M9.83301 9.33301H11.1663V10.6663H9.83301V9.33301Z" fill="black"/>
<path d="M13.833 9.33301H15.1663V10.6663H13.833V9.33301Z" fill="black"/>
<path d="M17.833 9.33301H19.1663V10.6663H17.833V9.33301Z" fill="black"/>
<path d="M5.83301 12.667H7.16634V14.0003H5.83301V12.667Z" fill="black"/>
<path d="M9.83301 12.667H11.1663V14.0003H9.83301V12.667Z" fill="black"/>
<path d="M13.833 12.667H15.1663V14.0003H13.833V12.667Z" fill="black"/>
<path d="M17.833 12.667H19.1663V14.0003H17.833V12.667Z" fill="black"/>
<path d="M5.83301 16H7.16634V17.3333H5.83301V16Z" fill="black"/>
<path d="M9.83301 16H11.1663V17.3333H9.83301V16Z" fill="black"/>
<path d="M13.833 16H15.1663V17.3333H13.833V16Z" fill="black"/>
<path d="M17.833 16H19.1663V17.3333H17.833V16Z" fill="black"/>
<path d="M7.16667 6.66634C7.34348 6.66634 7.51305 6.5961 7.63807 6.47108C7.7631 6.34605 7.83333 6.17649 7.83333 5.99967V1.99967C7.83333 1.82286 7.7631 1.65329 7.63807 1.52827C7.51305 1.40325 7.34348 1.33301 7.16667 1.33301C6.98986 1.33301 6.82029 1.40325 6.69526 1.52827C6.57024 1.65329 6.5 1.82286 6.5 1.99967V5.99967C6.5 6.17649 6.57024 6.34605 6.69526 6.47108C6.82029 6.5961 6.98986 6.66634 7.16667 6.66634Z" fill="black"/>
<path d="M17.8337 6.66634C18.0105 6.66634 18.18 6.5961 18.3051 6.47108C18.4301 6.34605 18.5003 6.17649 18.5003 5.99967V1.99967C18.5003 1.82286 18.4301 1.65329 18.3051 1.52827C18.18 1.40325 18.0105 1.33301 17.8337 1.33301C17.6568 1.33301 17.4873 1.40325 17.3623 1.52827C17.2372 1.65329 17.167 1.82286 17.167 1.99967V5.99967C17.167 6.17649 17.2372 6.34605 17.3623 6.47108C17.4873 6.5961 17.6568 6.66634 17.8337 6.66634Z" fill="black"/>
<path d="M9.16699 4H15.8337V5.33333H9.16699V4Z" fill="black"/>
</g>
<defs>
<clipPath id="clip0_360_2691">
<rect width="24" height="24" fill="white" transform="translate(0.5)"/>
</clipPath>
</defs>
</svg>
