<svg width="25" height="24" viewBox="0 0 25 24" fill="none" xmlns="http://www.w3.org/2000/svg">
<path d="M21.5 12C21.5 11.4033 21.2629 10.831 20.841 10.409C20.419 9.98705 19.8467 9.75 19.25 9.75H15.5C15.5 10.5456 15.1839 11.3087 14.6213 11.8713C14.0587 12.4339 13.2956 12.75 12.5 12.75C11.7044 12.75 10.9413 12.4339 10.3787 11.8713C9.81607 11.3087 9.5 10.5456 9.5 9.75H5.75C5.15326 9.75 4.58097 9.98705 4.15901 10.409C3.73705 10.831 3.5 11.4033 3.5 12M21.5 12V18C21.5 18.5967 21.2629 19.169 20.841 19.591C20.419 20.0129 19.8467 20.25 19.25 20.25H5.75C5.15326 20.25 4.58097 20.0129 4.15901 19.591C3.73705 19.169 3.5 18.5967 3.5 18V12M21.5 12V9M3.5 12V9M21.5 9C21.5 8.40326 21.2629 7.83097 20.841 7.40901C20.419 6.98705 19.8467 6.75 19.25 6.75H5.75C5.15326 6.75 4.58097 6.98705 4.15901 7.40901C3.73705 7.83097 3.5 8.40326 3.5 9M21.5 9V6C21.5 5.40326 21.2629 4.83097 20.841 4.40901C20.419 3.98705 19.8467 3.75 19.25 3.75H5.75C5.15326 3.75 4.58097 3.98705 4.15901 4.40901C3.73705 4.83097 3.5 5.40326 3.5 6V9" stroke="black" stroke-width="1.5" stroke-linecap="round" stroke-linejoin="round"/>
</svg>
