<svg width="25" height="24" viewBox="0 0 25 24" fill="none" xmlns="http://www.w3.org/2000/svg">
<path fill-rule="evenodd" clip-rule="evenodd" d="M19.5002 4.74141V8.00041C19.8941 8.00041 20.2842 8.078 20.6482 8.22877C21.0122 8.37953 21.3429 8.60051 21.6215 8.87909C21.9001 9.15766 22.121 9.48838 22.2718 9.85236C22.4226 10.2163 22.5002 10.6064 22.5002 11.0004C22.5002 11.3944 22.4226 11.7845 22.2718 12.1485C22.121 12.5124 21.9001 12.8432 21.6215 13.1217C21.3429 13.4003 21.0122 13.6213 20.6482 13.772C20.2842 13.9228 19.8941 14.0004 19.5002 14.0004V17.0004C19.5002 18.6484 17.6192 19.5894 16.3002 18.6004L14.2402 17.0544C13.139 16.2288 11.8569 15.6775 10.5002 15.4464V18.2904C10.5003 18.9442 10.2641 19.5759 9.83507 20.0692C9.40608 20.5625 8.81322 20.8841 8.16579 20.9747C7.51836 21.0653 6.85999 20.9188 6.31205 20.5623C5.76412 20.2057 5.36354 19.6631 5.18417 19.0344L3.61417 13.5384C3.04919 12.8712 2.68151 12.0596 2.55246 11.1949C2.42341 10.3302 2.53811 9.44664 2.88366 8.64354C3.22921 7.84044 3.79192 7.14965 4.50853 6.6488C5.22513 6.14796 6.06724 5.85692 6.94017 5.80841L9.95817 5.64041C11.4348 5.55823 12.8708 5.12674 14.1482 4.38141L16.4922 3.01341C17.8262 2.23641 19.5002 3.19741 19.5002 4.74141ZM6.13417 15.0784L7.10717 18.4854C7.154 18.6503 7.25892 18.7927 7.40255 18.8863C7.54618 18.9799 7.71883 19.0184 7.88861 18.9946C8.05839 18.9708 8.21383 18.8865 8.32624 18.757C8.43865 18.6276 8.50043 18.4618 8.50017 18.2904V15.2804L6.94017 15.1934C6.6687 15.1783 6.39903 15.1399 6.13417 15.0784ZM17.5002 4.74141L15.1552 6.11041C13.7305 6.94085 12.142 7.45069 10.5002 7.60441V13.4234C12.2872 13.6694 13.9882 14.3664 15.4402 15.4544L17.5002 17.0004V4.74141ZM8.50017 7.72441L7.05017 7.80441C6.37562 7.84165 5.73954 8.13043 5.26749 8.61373C4.79544 9.09703 4.52173 9.73973 4.50038 10.415C4.47903 11.0902 4.7116 11.7489 5.15217 12.2611C5.59275 12.7732 6.20932 13.1016 6.88017 13.1814L7.05017 13.1964L8.50017 13.2764V7.72441ZM19.5002 10.0004V12.0004C19.7551 12.0001 20.0002 11.9025 20.1855 11.7276C20.3709 11.5526 20.4824 11.3135 20.4973 11.059C20.5123 10.8046 20.4295 10.554 20.2659 10.3586C20.1023 10.1631 19.8703 10.0375 19.6172 10.0074L19.5002 10.0004Z" fill="black"/>
</svg>
