<svg width="25" height="24" viewBox="0 0 25 24" fill="none" xmlns="http://www.w3.org/2000/svg">
<path d="M5.5 5C5.23478 5 4.98043 5.10536 4.79289 5.29289C4.60536 5.48043 4.5 5.73478 4.5 6V15C4.5 15.2652 4.60536 15.5196 4.79289 15.7071C4.98043 15.8946 5.23478 16 5.5 16H19.5C19.7652 16 20.0196 15.8946 20.2071 15.7071C20.3946 15.5196 20.5 15.2652 20.5 15V6C20.5 5.73478 20.3946 5.48043 20.2071 5.29289C20.0196 5.10536 19.7652 5 19.5 5H5.5ZM5.5 3H19.5C20.2956 3 21.0587 3.31607 21.6213 3.87868C22.1839 4.44129 22.5 5.20435 22.5 6V15C22.5 15.7956 22.1839 16.5587 21.6213 17.1213C21.0587 17.6839 20.2956 18 19.5 18H5.5C4.70435 18 3.94129 17.6839 3.37868 17.1213C2.81607 16.5587 2.5 15.7956 2.5 15V6C2.5 5.20435 2.81607 4.44129 3.37868 3.87868C3.94129 3.31607 4.70435 3 5.5 3ZM9.5 19H15.5C15.7652 19 16.0196 19.1054 16.2071 19.2929C16.3946 19.4804 16.5 19.7348 16.5 20C16.5 20.2652 16.3946 20.5196 16.2071 20.7071C16.0196 20.8946 15.7652 21 15.5 21H9.5C9.23478 21 8.98043 20.8946 8.79289 20.7071C8.60536 20.5196 8.5 20.2652 8.5 20C8.5 19.7348 8.60536 19.4804 8.79289 19.2929C8.98043 19.1054 9.23478 19 9.5 19Z" fill="black"/>
</svg>
