<svg width="17" height="16" viewBox="0 0 17 16" fill="none" xmlns="http://www.w3.org/2000/svg">
<path d="M10 4.183V0.817C10 0.579 10.078 0.383333 10.234 0.23C10.39 0.0766667 10.5833 0 10.814 0H15.694C15.9247 0 16.1167 0.0766667 16.27 0.23C16.4233 0.383333 16.5 0.579 16.5 0.817V4.183C16.5 4.421 16.422 4.61667 16.266 4.77C16.11 4.92333 15.9167 5 15.686 5H10.806C10.5753 5 10.3833 4.92333 10.23 4.77C10.0767 4.61667 10 4.421 10 4.183ZM0.5 7.2V0.8C0.5 0.573334 0.578 0.383333 0.734 0.23C0.89 0.0766667 1.08333 0 1.314 0H6.194C6.42467 0 6.61667 0.0766667 6.77 0.23C6.92333 0.383333 7 0.573334 7 0.8V7.2C7 7.42667 6.922 7.61667 6.766 7.77C6.61 7.92333 6.41667 8 6.186 8H1.306C1.07533 8 0.883333 7.92333 0.73 7.77C0.576667 7.61667 0.5 7.42667 0.5 7.2ZM10 15.2V8.8C10 8.57333 10.078 8.38333 10.234 8.23C10.39 8.07667 10.5833 8 10.814 8H15.694C15.9247 8 16.1167 8.07667 16.27 8.23C16.4233 8.38333 16.5 8.57333 16.5 8.8V15.2C16.5 15.4267 16.422 15.6167 16.266 15.77C16.11 15.9233 15.9167 16 15.686 16H10.806C10.5753 16 10.3833 15.9233 10.23 15.77C10.0767 15.6167 10 15.4267 10 15.2ZM0.5 15.183V11.817C0.5 11.579 0.578 11.3833 0.734 11.23C0.89 11.0767 1.08333 11 1.314 11H6.194C6.42467 11 6.61667 11.0767 6.77 11.23C6.92333 11.3833 7 11.579 7 11.817V15.183C7 15.421 6.922 15.6167 6.766 15.77C6.61 15.9233 6.41667 16 6.186 16H1.306C1.07533 16 0.883333 15.9233 0.73 15.77C0.576667 15.6167 0.5 15.421 0.5 15.183ZM1.5 7H6V1H1.5V7ZM11 15H15.5V9H11V15ZM11 4H15.5V1H11V4ZM1.5 15H6V12H1.5V15Z" fill="black"/>
</svg>
